<svg width="45" height="44" viewBox="0 0 45 44" fill="none" xmlns="http://www.w3.org/2000/svg">
<path d="M26.3086 29.3334C26.3086 32.5784 24.8969 35.5117 22.6419 37.5101C20.6986 39.2701 18.1319 40.3334 15.3086 40.3334C9.24026 40.3334 4.30859 35.4017 4.30859 29.3334C4.30859 25.5676 6.22184 22.2373 9.11702 20.2596C9.51073 19.9906 10.0382 20.1778 10.2439 20.6079C11.9587 24.1933 15.1762 26.8818 19.0119 27.9217C20.1669 28.2517 21.3769 28.4167 22.6419 28.4167C23.5855 28.4167 24.4871 28.3222 25.3626 28.1491C25.8149 28.0596 26.2656 28.3502 26.293 28.8104C26.3034 28.9854 26.3086 29.1607 26.3086 29.3334Z" fill="#424EDE"/>
<path d="M33.6426 14.6665C33.6426 16.0965 33.3676 17.4715 32.8726 18.7182C31.6076 21.9082 28.8942 24.3648 25.5392 25.2815C24.6226 25.5382 23.6509 25.6665 22.6426 25.6665C21.6342 25.6665 20.6626 25.5382 19.7459 25.2815C16.3909 24.3648 13.6776 21.9082 12.4126 18.7182C11.9176 17.4715 11.6426 16.0965 11.6426 14.6665C11.6426 8.59817 16.5742 3.6665 22.6426 3.6665C28.7109 3.6665 33.6426 8.59817 33.6426 14.6665Z" fill="#01D7DF"/>
<path d="M40.9753 29.3334C40.9753 35.4017 36.0436 40.3334 29.9753 40.3334C28.5464 40.3334 27.1743 40.0607 25.9216 39.56C25.4241 39.3612 25.3311 38.7204 25.6852 38.3184C27.8537 35.8562 29.0586 32.6692 29.0586 29.3334C29.0586 28.7101 29.0036 28.0867 28.9119 27.5001V27.5001C28.8574 27.1619 29.03 26.8295 29.3296 26.6635C31.8006 25.2956 33.8102 23.1867 35.0404 20.6093C35.2459 20.1786 35.7738 19.991 36.1678 20.2602C39.0624 22.238 40.9753 25.568 40.9753 29.3334Z" fill="#5386FB"/>
</svg>
