<svg width="313" height="98" viewBox="0 0 313 98" fill="none" xmlns="http://www.w3.org/2000/svg">
<path d="M57.1667 65.3335C57.1667 72.561 54.0225 79.0943 49 83.5452C44.6717 87.4652 38.955 89.8335 32.6667 89.8335C19.1509 89.8335 8.16669 78.8493 8.16669 65.3335C8.16669 56.946 12.428 49.5286 18.8764 45.1236C19.7533 44.5245 20.928 44.9415 21.3862 45.8995C25.2056 53.8851 32.3718 59.8732 40.915 62.1893C43.4875 62.9243 46.1825 63.2918 49 63.2918C51.1017 63.2918 53.1098 63.0813 55.0597 62.6956C56.067 62.4964 57.0709 63.1436 57.1319 64.1686C57.1551 64.5583 57.1667 64.9488 57.1667 65.3335Z" fill="#424EDE"/>
<path d="M73.5 32.6665C73.5 35.8515 72.8875 38.914 71.785 41.6907C68.9675 48.7957 62.9242 54.2673 55.4517 56.309C53.41 56.8807 51.2458 57.1665 49 57.1665C46.7542 57.1665 44.59 56.8807 42.5483 56.309C35.0758 54.2673 29.0325 48.7957 26.215 41.6907C25.1125 38.914 24.5 35.8515 24.5 32.6665C24.5 19.1507 35.4842 8.1665 49 8.1665C62.5158 8.1665 73.5 19.1507 73.5 32.6665Z" fill="#01D7DF"/>
<path d="M89.8334 65.3335C89.8334 78.8493 78.8492 89.8335 65.3334 89.8335C62.1508 89.8335 59.0948 89.2261 56.3048 88.1109C55.1968 87.668 54.9895 86.241 55.7782 85.3455C60.6081 79.8616 63.2917 72.7632 63.2917 65.3335C63.2917 63.9452 63.1692 62.5568 62.965 61.2502C62.8435 60.497 63.2279 59.7565 63.8954 59.387C69.3989 56.3403 73.8749 51.643 76.6148 45.9025C77.0726 44.9433 78.2482 44.5254 79.1257 45.125C85.5729 49.5302 89.8334 56.9469 89.8334 65.3335Z" fill="#5386FB"/>
<path d="M164.238 36.35V42.895H152.516V78H145.674V42.895H133.893V36.35H164.238ZM168.593 65.862C169.069 68.123 170.159 69.8683 171.865 71.098C173.571 72.288 175.653 72.883 178.113 72.883C181.524 72.883 184.082 71.6533 185.788 69.194L191.084 72.288C188.148 76.6117 183.805 78.7735 178.053 78.7735C173.214 78.7735 169.307 77.3058 166.332 74.3705C163.357 71.3955 161.869 67.647 161.869 63.125C161.869 58.6823 163.337 54.9735 166.272 51.9985C169.207 48.9838 172.976 47.4765 177.577 47.4765C181.94 47.4765 185.51 49.0037 188.287 52.058C191.103 55.1123 192.512 58.8212 192.512 63.1845C192.512 63.8588 192.432 64.7513 192.274 65.862H168.593ZM168.533 60.626H186.026C185.59 58.2063 184.578 56.3817 182.992 55.152C181.445 53.9223 179.62 53.3075 177.518 53.3075C175.138 53.3075 173.154 53.962 171.568 55.271C169.981 56.58 168.969 58.365 168.533 60.626ZM221.554 48.25H227.98V78H221.554V73.716C219.134 77.0877 215.663 78.7735 211.141 78.7735C207.055 78.7735 203.565 77.2662 200.669 74.2515C197.773 71.1972 196.326 67.4883 196.326 63.125C196.326 58.722 197.773 55.0132 200.669 51.9985C203.565 48.9838 207.055 47.4765 211.141 47.4765C215.663 47.4765 219.134 49.1425 221.554 52.4745V48.25ZM205.429 69.9675C207.214 71.7525 209.455 72.645 212.153 72.645C214.85 72.645 217.091 71.7525 218.876 69.9675C220.661 68.1428 221.554 65.862 221.554 63.125C221.554 60.388 220.661 58.127 218.876 56.342C217.091 54.5173 214.85 53.605 212.153 53.605C209.455 53.605 207.214 54.5173 205.429 56.342C203.644 58.127 202.752 60.388 202.752 63.125C202.752 65.862 203.644 68.1428 205.429 69.9675ZM249.512 78.7735C245.029 78.7735 241.281 77.2662 238.266 74.2515C235.291 71.2368 233.804 67.528 233.804 63.125C233.804 58.6823 235.291 54.9735 238.266 51.9985C241.281 48.9838 245.029 47.4765 249.512 47.4765C252.407 47.4765 255.045 48.1707 257.425 49.559C259.805 50.9473 261.59 52.8117 262.78 55.152L257.247 58.365C256.572 56.937 255.541 55.8263 254.153 55.033C252.804 54.2 251.237 53.7835 249.452 53.7835C246.834 53.7835 244.633 54.676 242.848 56.461C241.102 58.246 240.23 60.4673 240.23 63.125C240.23 65.7827 241.102 68.004 242.848 69.789C244.633 71.574 246.834 72.4665 249.452 72.4665C251.198 72.4665 252.764 72.05 254.153 71.217C255.581 70.384 256.652 69.2733 257.366 67.885L262.899 71.0385C261.63 73.4185 259.805 75.3027 257.425 76.691C255.045 78.0793 252.407 78.7735 249.512 78.7735ZM283.192 47.4765C286.604 47.4765 289.361 48.5673 291.463 50.749C293.565 52.9307 294.616 55.9255 294.616 59.7335V78H288.19V60.388C288.19 58.1667 287.595 56.461 286.405 55.271C285.215 54.081 283.589 53.486 281.526 53.486C279.265 53.486 277.441 54.2 276.052 55.628C274.664 57.0163 273.97 59.1583 273.97 62.054V78H267.544V36.35H273.97V52.058C275.914 49.0037 278.988 47.4765 283.192 47.4765ZM308.557 77.405C307.684 78.2777 306.633 78.714 305.403 78.714C304.173 78.714 303.122 78.2777 302.25 77.405C301.377 76.5323 300.941 75.4812 300.941 74.2515C300.941 73.0218 301.357 71.9707 302.19 71.098C303.063 70.2253 304.134 69.789 305.403 69.789C306.633 69.789 307.684 70.2253 308.557 71.098C309.429 71.9707 309.866 73.0218 309.866 74.2515C309.866 75.4812 309.429 76.5323 308.557 77.405Z" fill="white"/>
</svg>
